<?xml version="1.0" standalone="no"?>
<!DOCTYPE svg PUBLIC "-//W3C//DTD SVG 20010904//EN"
 "http://www.w3.org/TR/2001/REC-SVG-20010904/DTD/svg10.dtd">
<svg version="1.0" xmlns="http://www.w3.org/2000/svg"
 width="521.000000pt" height="521.000000pt" viewBox="0 0 521.000000 521.000000"
 preserveAspectRatio="xMidYMid meet">
<metadata>
Created by potrace 1.11, written by Peter Selinger 2001-2013
</metadata>
<g transform="translate(0.000000,521.000000) scale(0.100000,-0.100000)"
fill="#000000" stroke="none">
<path d="M920 5002 c-8 -3 -31 -21 -50 -40 -30 -31 -35 -43 -38 -99 -3 -35 -7
-63 -11 -63 -4 0 -6 -48 -6 -107 1 -60 -3 -110 -7 -113 -4 -3 -8 -71 -9 -150
0 -80 -3 -149 -7 -154 -3 -6 -5 -72 -3 -148 1 -81 -2 -138 -8 -138 -5 0 -10
-53 -10 -121 -1 -67 -4 -125 -6 -129 -3 -5 -5 -47 -6 -94 0 -47 -4 -88 -8 -90
-4 -3 -6 -43 -6 -90 1 -47 -2 -86 -6 -86 -7 0 -14 -80 -20 -232 -1 -32 -6 -58
-11 -58 -6 0 -8 -27 -6 -60 1 -33 0 -60 -4 -60 -5 0 -8 -29 -8 -65 0 -36 -3
-65 -8 -65 -4 0 -8 -19 -10 -42 -1 -24 -6 -77 -12 -118 -6 -41 -13 -93 -16
-115 -2 -22 -7 -56 -10 -75 -3 -19 -8 -60 -11 -90 -3 -30 -8 -59 -12 -65 -4
-5 -7 -31 -6 -58 0 -26 -2 -47 -6 -47 -5 0 -10 -34 -23 -175 -1 -16 -5 -37 -8
-45 -10 -25 -6 -214 5 -227 5 -7 6 -13 1 -13 -4 0 3 -11 16 -25 13 -14 20 -25
15 -25 -5 0 8 -9 30 -20 41 -21 155 -29 155 -11 0 6 9 8 20 6 11 -2 20 0 20 5
0 4 18 11 40 15 22 4 40 11 40 15 0 5 16 12 35 16 19 3 35 10 35 14 0 5 8 7
18 6 9 -2 26 3 37 10 11 8 30 14 42 14 13 0 23 4 23 10 0 5 12 13 28 16 15 4
32 11 39 16 7 5 17 7 23 3 5 -3 17 1 26 9 8 9 26 16 40 16 13 0 24 4 24 10 0
5 16 12 35 16 19 3 35 10 35 16 0 5 4 7 9 4 5 -4 11 -2 13 2 1 5 18 12 35 15
24 5 36 2 45 -9 7 -9 40 -45 73 -80 33 -35 59 -68 57 -74 -2 -5 3 -10 12 -10
9 0 28 -14 43 -30 14 -17 28 -28 31 -25 3 2 22 -13 42 -35 20 -22 40 -37 42
-34 3 3 14 -6 25 -19 10 -13 29 -27 41 -31 12 -4 22 -11 22 -15 0 -15 102 -61
135 -61 36 0 135 45 135 61 0 5 6 9 14 9 22 0 76 59 83 90 3 17 9 30 14 30 5
0 9 11 9 24 0 21 -6 24 -52 30 -74 10 -215 69 -225 94 -3 6 -10 12 -17 12 -15
0 -96 82 -96 98 0 7 -4 12 -9 12 -5 0 -12 12 -15 26 -5 20 -2 32 13 46 12 10
21 16 21 12 0 -4 10 4 23 18 13 14 40 31 60 37 20 7 37 16 37 21 0 5 14 11 30
15 17 4 30 11 30 15 0 5 16 12 35 16 19 3 38 10 41 15 3 5 10 7 15 4 5 -4 9
-1 9 4 0 6 6 11 14 11 8 0 37 11 64 25 28 14 55 25 61 25 6 0 11 4 11 9 0 5
14 12 30 16 17 4 30 11 30 16 0 5 7 9 15 9 9 0 15 9 15 25 0 14 -5 25 -11 25
-6 0 -9 14 -6 35 3 19 1 35 -4 35 -5 0 -9 8 -9 18 0 10 -5 23 -12 30 -7 7 -9
12 -4 12 4 0 0 7 -9 17 -19 19 -114 20 -126 1 -4 -6 -12 -7 -18 -4 -6 4 -11 3
-11 -2 0 -9 -37 -25 -52 -23 -5 1 -8 -3 -8 -9 0 -5 -4 -10 -9 -10 -5 0 -22 -5
-38 -11 -15 -6 -30 -11 -33 -11 -3 -1 -22 -11 -42 -24 -20 -13 -48 -26 -62
-30 -14 -3 -26 -10 -26 -16 0 -5 -6 -8 -12 -7 -20 2 -58 -12 -58 -22 0 -5 -3
-8 -7 -7 -8 1 -28 -6 -113 -46 -25 -11 -51 -19 -57 -18 -7 2 -13 -2 -13 -7 0
-6 -16 -13 -35 -17 -19 -3 -35 -10 -35 -15 0 -5 -3 -8 -7 -7 -18 4 -83 -15
-83 -24 0 -5 -4 -7 -9 -3 -5 3 -12 1 -15 -4 -4 -5 -24 -12 -46 -16 -22 -4 -40
-11 -40 -17 0 -6 -9 -8 -20 -5 -11 3 -20 1 -20 -4 0 -5 -9 -9 -20 -9 -11 0
-20 -4 -20 -8 0 -4 -8 -8 -17 -9 -35 -3 -113 -27 -113 -34 0 -5 -16 -11 -35
-15 -19 -3 -35 -10 -35 -15 0 -4 -9 -6 -20 -4 -11 2 -20 0 -20 -5 0 -5 -15
-12 -32 -15 -18 -4 -42 -14 -53 -21 -11 -8 -36 -14 -57 -14 -34 0 -38 3 -38
25 0 14 -4 25 -8 25 -18 0 -21 258 -3 269 4 4 8 13 9 21 2 42 16 126 22 135 4
6 6 22 5 38 -1 15 2 27 6 27 5 0 9 10 9 23 1 12 3 142 6 290 3 147 10 267 14
267 5 0 9 30 10 68 1 109 12 252 19 252 4 0 7 36 6 81 -1 44 2 82 6 84 4 3 10
79 14 170 4 91 10 165 15 165 4 0 8 37 9 83 5 172 13 297 20 297 3 0 6 72 6
160 -1 88 3 160 7 160 4 0 8 61 8 135 0 83 -4 135 -10 135 -5 0 -9 3 -8 8 3
10 -20 50 -41 71 -22 22 -42 29 -61 23z"/>
<path d="M3010 3272 c0 -4 -16 -14 -35 -21 -19 -7 -35 -16 -35 -20 0 -5 -9
-11 -20 -14 -15 -4 -20 -14 -20 -36 0 -17 -4 -31 -8 -31 -5 0 -8 -12 -7 -27 1
-16 -1 -32 -5 -38 -7 -10 -16 -54 -24 -125 -2 -19 -5 -35 -6 -35 -4 0 -9 -33
-16 -97 -4 -32 -10 -58 -13 -58 -4 0 -7 -18 -6 -40 1 -22 -2 -40 -6 -40 -4 0
-11 -40 -15 -90 -3 -49 -11 -90 -15 -90 -5 0 -9 -12 -8 -27 1 -45 -13 -177
-21 -188 -3 -5 -6 -38 -5 -72 1 -35 -2 -63 -5 -63 -7 0 -21 -141 -21 -217 0
-24 -5 -43 -10 -43 -5 0 -9 -17 -8 -37 0 -33 -9 -104 -26 -203 -18 -110 -43
-160 -77 -160 -9 0 -20 -5 -23 -10 -3 -6 -17 -8 -31 -6 -13 3 -24 1 -24 -3 0
-8 -79 -26 -160 -37 -99 -13 -116 -16 -130 -21 -8 -3 -28 -7 -45 -8 -16 -1
-37 -4 -45 -8 -18 -7 -150 -21 -167 -18 -7 1 -13 -3 -13 -10 0 -7 -13 -10 -35
-7 -19 2 -35 0 -35 -4 0 -4 -11 -8 -24 -8 -14 0 -28 -5 -31 -10 -4 -6 -11 -8
-16 -4 -5 3 -15 1 -22 -4 -7 -5 -25 -12 -40 -16 -40 -10 -86 -64 -87 -103 0
-18 6 -36 13 -40 7 -4 21 -19 30 -33 9 -13 17 -21 17 -18 0 7 21 -12 83 -69
10 -10 40 -18 77 -21 50 -4 60 -2 60 12 0 9 4 16 9 16 5 0 7 9 4 21 -5 19 24
59 43 59 4 0 15 7 24 15 9 8 47 17 91 21 40 3 81 8 89 11 8 4 29 7 45 8 17 1
37 4 45 7 21 9 127 19 178 18 23 0 42 4 42 10 0 16 67 12 84 -6 12 -11 16 -36
16 -95 0 -43 -4 -79 -8 -79 -5 0 -9 -28 -10 -62 -1 -35 -6 -110 -12 -168 -6
-58 -10 -109 -9 -115 0 -5 3 -53 6 -105 2 -52 9 -100 13 -106 5 -5 7 -22 4
-37 -2 -15 0 -27 5 -27 4 0 11 -22 15 -50 4 -27 10 -50 15 -50 5 0 11 -13 14
-29 5 -25 13 -31 42 -37 19 -3 35 -10 35 -15 0 -5 5 -9 11 -9 5 0 8 4 5 9 -3
5 1 11 9 15 8 3 15 12 15 21 0 8 4 15 9 15 5 0 12 18 16 40 4 22 10 42 14 44
7 5 5 136 -4 360 -3 60 -1 114 3 120 5 6 8 39 7 74 0 34 3 62 6 62 7 0 18 114
18 193 0 21 4 36 9 33 5 -3 19 7 31 23 14 18 36 32 57 35 19 4 34 11 34 16 0
6 6 10 14 10 8 0 27 5 43 12 15 6 30 12 33 13 3 1 12 4 20 8 19 7 93 21 103
19 4 -1 7 2 7 8 0 5 10 10 23 9 42 -1 147 14 147 20 0 4 38 7 85 6 47 -1 85 2
85 7 0 4 22 8 50 8 l49 0 0 70 -1 69 -313 1 c-173 0 -316 -4 -319 -8 -3 -5
-22 -8 -43 -7 l-38 1 -2 112 c-1 62 2 112 7 112 4 0 9 60 10 133 2 179 10 339
17 357 4 8 7 31 8 50 1 19 4 42 8 50 7 20 18 98 19 138 0 17 5 32 10 32 5 0 8
16 7 34 -2 19 0 38 4 42 4 4 7 29 7 56 0 26 4 48 9 48 5 0 8 18 6 40 -2 22 0
40 4 40 8 0 24 103 22 145 0 11 5 22 11 26 15 9 13 202 -1 207 -6 2 -11 26
-11 53 0 42 -3 49 -20 49 -11 0 -20 -4 -20 -8z"/>
<path d="M4035 646 c-11 -7 -31 -17 -44 -21 -24 -7 -36 -15 -71 -47 -10 -9
-28 -19 -39 -23 -12 -3 -19 -10 -16 -15 3 -4 -2 -10 -10 -14 -8 -3 -15 -15
-15 -26 0 -11 -4 -20 -10 -20 -5 0 -12 -16 -16 -35 -3 -19 -10 -35 -15 -35 -4
0 -6 -9 -4 -20 2 -11 0 -20 -6 -20 -5 0 -9 -20 -9 -44 0 -39 3 -45 26 -50 15
-4 33 -14 41 -21 8 -8 25 -15 39 -15 13 0 24 -3 24 -7 0 -12 92 -7 136 7 21 7
43 19 47 26 4 8 13 14 20 14 20 0 137 129 131 145 -4 8 -1 15 5 15 6 0 11 9
11 20 0 11 -5 20 -11 20 -6 0 -9 6 -6 13 4 11 -3 28 -44 105 -7 12 -23 25 -35
28 -12 3 -25 12 -28 20 -7 18 -75 19 -101 0z"/>
</g>
</svg>
